<mxfile host="app.diagrams.net" modified="2021-01-15T03:14:32.220Z" agent="5.0 (Windows NT 10.0; WOW64) AppleWebKit/537.36 (KHTML, like Gecko) Chrome/87.0.4280.141 Safari/537.36" etag="haFHOe87ODnCaYwwc26e" version="14.2.3" type="github">
  <diagram id="6M-rXjKtWn2M5U439fmK" name="第 1 页">
    <mxGraphModel dx="1102" dy="582" grid="1" gridSize="10" guides="1" tooltips="1" connect="1" arrows="1" fold="1" page="1" pageScale="1" pageWidth="827" pageHeight="1169" math="0" shadow="0">
      <root>
        <mxCell id="0" />
        <mxCell id="1" parent="0" />
        <mxCell id="50sPfNo8_9_vYa72ZFZZ-2" value="" style="edgeStyle=orthogonalEdgeStyle;rounded=0;orthogonalLoop=1;jettySize=auto;html=1;" edge="1" parent="1" source="qlhcU2Wvalo2mol9T5xW-1" target="50sPfNo8_9_vYa72ZFZZ-1">
          <mxGeometry relative="1" as="geometry" />
        </mxCell>
        <mxCell id="qlhcU2Wvalo2mol9T5xW-1" value="xs" style="whiteSpace=wrap;html=1;aspect=fixed;" parent="1" vertex="1">
          <mxGeometry x="120" y="110" width="80" height="80" as="geometry" />
        </mxCell>
        <mxCell id="50sPfNo8_9_vYa72ZFZZ-4" value="" style="edgeStyle=orthogonalEdgeStyle;rounded=0;orthogonalLoop=1;jettySize=auto;html=1;" edge="1" parent="1" source="50sPfNo8_9_vYa72ZFZZ-1" target="50sPfNo8_9_vYa72ZFZZ-3">
          <mxGeometry relative="1" as="geometry" />
        </mxCell>
        <mxCell id="50sPfNo8_9_vYa72ZFZZ-1" value="test" style="rounded=1;whiteSpace=wrap;html=1;" vertex="1" parent="1">
          <mxGeometry x="230" y="120" width="120" height="60" as="geometry" />
        </mxCell>
        <mxCell id="50sPfNo8_9_vYa72ZFZZ-6" value="" style="edgeStyle=orthogonalEdgeStyle;rounded=0;orthogonalLoop=1;jettySize=auto;html=1;" edge="1" parent="1" source="50sPfNo8_9_vYa72ZFZZ-3" target="50sPfNo8_9_vYa72ZFZZ-5">
          <mxGeometry relative="1" as="geometry" />
        </mxCell>
        <mxCell id="50sPfNo8_9_vYa72ZFZZ-3" value="test02" style="rounded=1;whiteSpace=wrap;html=1;" vertex="1" parent="1">
          <mxGeometry x="420" y="120" width="120" height="60" as="geometry" />
        </mxCell>
        <mxCell id="50sPfNo8_9_vYa72ZFZZ-5" value="" style="shape=process;whiteSpace=wrap;html=1;backgroundOutline=1;" vertex="1" parent="1">
          <mxGeometry x="610" y="120" width="120" height="60" as="geometry" />
        </mxCell>
      </root>
    </mxGraphModel>
  </diagram>
</mxfile>
